# AST/ASF file generated using VICON BodyLanguage
# -----------------------------------------------
:version 1.10
:name VICON
:units
  mass 1.0
  length 0.45
  angle deg
:documentation
   .ast/.asf automatically generated from VICON data using
   VICON BodyBuilder and BodyLanguage model FoxedUp or BRILLIANT.MOD
:root
   order TX TY TZ RX RY RZ
   axis XYZ
   position 0 0 0  
   orientation 0 0 0 
:bonedata
  begin
     id 1 
     name lhipjoint
     direction 0.702568 -0.596508 0.388042 
     length 2.56661 
     axis 0 0 0  XYZ
  end
  begin
     id 2 
     name lfemur
     direction 0.34202 -0.939693 0  
     length 6.58374  
     axis 0 0 20  XYZ
    dof rx ry rz
    limits (-160.0 20.0)
           (-70.0 70.0)
           (-60.0 70.0)
  end
  begin
     id 3 
     name ltibia
     direction 0.34202 -0.939693 0   
     length 6.62538   
     axis 0 0 20   XYZ
    dof rx
    limits (-10.0 170.0)
  end
  begin
     id 4 
     name lfoot
     direction 0.10455 -0.287249 0.952133   
     length 2.26699   
     axis -90 7.62852e-016 20   XYZ
    dof rx rz
    limits (-45.0 90.0)
           (-70.0 20.0)
  end
  begin
     id 5 
     name ltoes
     direction 1.53572e-011 -4.22322e-011 1   
     length 1.12949   
     axis -90 7.62852e-016 20   XYZ
    dof rx
    limits (-90.0 20.0)
  end
  begin
     id 6 
     name rhipjoint
     direction -0.728055 -0.574632 0.373811   
     length 2.66432  
     axis 0 0 0  XYZ 
  end
  begin
     id 7 
     name rfemur
     direction -0.34202 -0.939693 0   
     length 6.66732   
     axis 0 0 -20   XYZ
    dof rx ry rz
    limits (-160.0 20.0)
           (-70.0 70.0)
           (-70.0 60.0)
  end
  begin
     id 8 
     name rtibia
     direction -0.34202 -0.939693 0   
     length 6.59288   
     axis 0 0 -20   XYZ
    dof rx
    limits (-10.0 170.0)
 end
 begin
     id 9 
     name rfoot
     direction -0.119193 -0.327479 0.93731   
     length 2.38061  
     axis -90 -7.62852e-016 -20   XYZ
    dof rx rz
    limits (-45.0 90.0)
           (-20.0 70.0)
  end
  begin
     id 10 
     name rtoes
     direction -1.53547e-011 -4.21827e-011 1   
     length 1.17899   
     axis -90 -7.62852e-016 -20   XYZ
    dof rx
    limits (-90.0 20.0)
  end
  begin
     id 11 
     name lowerback
     direction -0.000416114 0.999912 -0.0132284   
     length 2.12109   
     axis 0 0 0   XYZ
    dof rx ry rz
    limits (-20.0 45.0)
           (-30.0 30.0)
           (-30.0 30.0)
  end
  begin
     id 12 
     name upperback
     direction -0.00136371 0.99809 0.0617608   
     length 2.10067   
     axis 0 0 0   XYZ
    dof rx ry rz
    limits (-20.0 45.0)
           (-30.0 30.0)
           (-30.0 30.0)
  end
  begin
     id 13 
     name thorax
     direction -3.43026e-005 0.997776 0.0666515   
     length 2.10618   
     axis 0 0 0   XYZ
    dof rx ry rz
    limits (-20.0 45.0)
           (-30.0 30.0)
           (-30.0 30.0)
  end
  begin
     id 14 
     name lowerneck
     direction 0.0398646 0.998418 0.0396592   
     length 1.83817   
     axis 0 0 0   XYZ
    dof rx ry rz
    limits (-20.0 45.0)
           (-30.0 30.0)
           (-30.0 30.0)
  end
  begin
     id 15 
     name upperneck
     direction -0.0367268 0.961527 -0.272244   
     length 1.81975   
     axis 0 0 0   XYZ
    dof rx ry rz
    limits (-20.0 45.0)
           (-30.0 30.0)
           (-30.0 30.0)
  end
  begin
     id 16
     name head
     direction -0.0182665 0.99536 -0.0944669  
     length 1.86026  
     axis 0 0 0   XYZ
    dof rx ry rz
    limits (-20.0 45.0)
           (-30.0 30.0)
           (-30.0 30.0)
  end
  begin
     id 17 
     name lclavicle
     direction 0.924239 0.361045 0.124212  
     length 3.26878  
     axis 0 0 0   XYZ
    dof ry rz
    limits (-20.0 10.0)
           (0.0 20.0)
  end
  begin
     id 18 
     name lhumerus
     direction 1 -4.48968e-011 -2.56583e-027   
     length 4.58538   
     axis 180 -30 -90   XYZ
    dof rx ry rz
    limits (-60.0 90.0)
           (-90.0 90.0)
           (-90.0 90.0)
  end
  begin
     id 19
     name lradius
     direction 1 -4.4898e-011 -5.50375e-027   
     length 2.68935   
     axis 180 -30 -90   XYZ
    dof rx
    limits (-10.0 170.0)
  end
  begin
     id 20
     name lwrist
     direction 1 -4.48939e-011 -1.48955e-026   
     length 1.34468   
     axis 9.0955e-015 90 90   XYZ
    dof ry
    limits (-180.0 0.0)
 end
  begin
     id 21 
     name lhand
     direction 1 -4.48936e-011 -2.97907e-026   
     length 0.585058   
     axis 1.90115e-014 90 90   XYZ
    dof rx rz
    limits (-90.0 90.0)
           (-45.0 45.0)
  end
  begin
     id 22 
     name lfingers
     direction 1 -4.49082e-011 -5.96235e-026   
     length 0.471689   
     axis 3.80223e-014 90 90   XYZ
    dof rx
    limits (0.0 90.0)
  end
  begin
     id 23
     name lthumb
     direction 0.707107 -6.3489e-011 0.707107   
     length 0.677253   
     axis -90 45 -3.84942e-014   XYZ
    dof rx rz
    limits (-45.0 45.0)
           (-45.0 45.0)
  end
  begin
     id 24 
     name rclavicle
     direction -0.923098 0.371783 0.0983239   
     length 3.19656  
     axis 0 0 0   XYZ 
    dof ry rz
    limits (-10.0 20.0)
           (-20.0 0.0)
  end
  begin
     id 25 
     name rhumerus
     direction -1 -4.48976e-011 -2.5492e-027  
     length 4.4745   
     axis 180 30 90   XYZ
    dof rx ry rz
    limits (-90.0 60.0)
           (-90.0 90.0)
           (-90.0 90.0)
  end
  begin
     id 26 
     name rradius
     direction -1 -4.48941e-011 -4.36555e-027   
     length 2.93896   
     axis 180 30 90   XYZ
    dof rx
    limits (-10.0 170.0)
  end
  begin
     id 27 
     name rwrist
     direction -1 -4.49044e-011 -1.49032e-026   
     length 1.46948   
     axis 9.0955e-015 -90 -90   XYZ
    dof ry
    limits (-180.0 0.0)
  end
  begin
     id 28
     name rhand
     direction -1 -4.48826e-011 -2.97749e-026   
     length 0.405092   
     axis 1.90115e-014 -90 -90   XYZ
    dof rx rz
    limits (-90.0 90.0)
           (-45.0 45.0)
  end
  begin
     id 29
     name rfingers
     direction -1 -4.49209e-011 -5.96602e-026   
     length 0.326596   
     axis 3.80223e-014 -90 -90   XYZ
    dof rx
    limits (0.0 90.0)
  end
  begin
     id 30
     name rthumb
     direction -0.707107 -6.34776e-011 0.707107   
     length 0.468928   
     axis -90 -45 3.84942e-014   XYZ
    dof rx rz
    limits (-45.0 45.0)
           (-45.0 45.0)
  end
:hierarchy
  begin
    root lhipjoint rhipjoint lowerback
    lhipjoint lfemur
    lfemur ltibia
    ltibia lfoot
    lfoot ltoes
    rhipjoint rfemur
    rfemur rtibia
    rtibia rfoot
    rfoot rtoes
    lowerback upperback
    upperback thorax
    thorax lowerneck lclavicle rclavicle
    lowerneck upperneck
    upperneck head
    lclavicle lhumerus
    lhumerus lradius
    lradius lwrist
    lwrist lhand lthumb
    lhand lfingers
    rclavicle rhumerus
    rhumerus rradius
    rradius rwrist
    rwrist rhand rthumb
    rhand rfingers
  end

#!OML:ASF H:\Punching\Project 1\Capture day 1\Session 1\female.ASF
:FULLY-SPECIFIED
:DEGREES
450
root -1.56208 14.8959 5.7473 13.4441 16.7755 2.63254
lowerback 1.55198 -3.07957 0.362874
upperback -4.78175 -4.01728 1.73309
thorax -5.72154 -1.9646 1.85329
lowerneck -8.27143 0.0751304 7.51653
upperneck 36.2889 -1.62843 0.208332
head 13.6412 0.387619 -1.45615
rclavicle -4.67144e-015 1.43125e-014
rhumerus 10.7755 22.2734 -75.0573
rradius 137.096
rwrist -48.6432
rhand -15.8099 -7.66997
rfingers 7.12502
rthumb 10.3836 -37.3936
lclavicle -4.67144e-015 1.43125e-014
lhumerus 11.9544 -23.378 78.4901
lradius 133.199
lwrist 42.6612
lhand -9.58192 33.0504
lfingers 7.12502
lthumb 16.3862 62.3782
rfemur -41.7396 -0.520599 9.23389
rtibia 51.8243
rfoot -18.364 -10.2226
rtoes -6.38705
lfemur 3.53377 -11.2709 -4.99364
ltibia 11.5749
lfoot -15.9891 4.61385
ltoes -31.3885
451
root -1.56784 14.899 5.75375 13.303 18.2816 2.39409
lowerback 1.75219 -2.78968 0.892332
upperback -4.81228 -3.58821 1.91564
thorax -5.90134 -1.76832 1.73455
lowerneck -8.59241 -0.6407 6.75231
upperneck 36.0848 -2.65546 0.627048
head 13.5853 -0.103455 -1.29082
rclavicle -3.3694e-014 1.11319e-014
rhumerus 10.6865 21.2932 -74.5602
rradius 137.407
rwrist -48.5815
rhand -15.7888 -7.67129
rfingers 7.12502
rthumb 10.4039 -37.3939
lclavicle -3.3694e-014 1.11319e-014
lhumerus 11.0765 -24.5942 78.995
lradius 135.639
lwrist 42.6674
lhand -9.73204 32.9743
lfingers 7.12502
lthumb 16.2417 62.314
rfemur -41.0731 -0.851676 9.52974
rtibia 51.7633
rfoot -18.4762 -11.1816
rtoes -6.43974
lfemur 2.38795 -11.5538 -4.26385
ltibia 12.804
lfoot -16.4127 4.06647
ltoes -31.4043
452
root -1.5718 14.9001 5.75698 13.1457 19.5183 2.06009
lowerback 1.93364 -2.44962 1.46072
upperback -4.85614 -3.08599 2.10593
thorax -6.08318 -1.5384 1.59319
lowerneck -8.78861 -1.32875 6.01447
upperneck 35.8198 -3.62528 1.03427
head 13.4933 -0.570852 -1.12714
rclavicle -2.67365e-014 4.77083e-015
rhumerus 10.5872 20.3036 -74.0758
rradius 137.663
rwrist -48.6141
rhand -15.8158 -7.68646
rfingers 7.12502
rthumb 10.3778 -37.4104
lclavicle -2.67365e-014 4.77083e-015
lhumerus 10.3224 -25.8385 79.4763
lradius 137.679
lwrist 42.1859
lhand -9.75192 32.8202
lfingers 7.12502
lthumb 16.2225 62.1614
rfemur -40.5346 -0.978742 9.89229
rtibia 51.6853
rfoot -18.5332 -12.0921
rtoes -6.45298
lfemur 1.37165 -11.7123 -3.55156
ltibia 13.9576
lfoot -16.8578 3.70582
ltoes -31.3969
453
root -1.57452 14.8995 5.75725 13.0033 20.4625 1.70995
lowerback 2.09581 -2.05563 1.99066
upperback -4.89679 -2.51215 2.26992
thorax -6.24498 -1.27315 1.43584
lowerneck -8.94369 -1.9807 5.34357
upperneck 35.5206 -4.54348 1.42398
head 13.3927 -1.01128 -0.976148
rclavicle 6.12754e-014 7.95139e-016
rhumerus 10.5002 19.2695 -73.624
rradius 137.878
rwrist -48.7856
rhand -15.8934 -7.73412
rfingers 7.12502
rthumb 10.303 -37.4618
lclavicle 6.12754e-014 7.95139e-016
lhumerus 9.75642 -27.1299 79.8933
lradius 139.342
lwrist 41.2859
lhand -9.66575 32.6129
lfingers 7.12502
lthumb 16.3055 61.9473
rfemur -40.1545 -0.932593 10.24
rtibia 51.6249
rfoot -18.5401 -12.9174
rtoes -6.44428
lfemur 0.515629 -11.7622 -2.93984
ltibia 14.9763
lfoot -17.2838 3.53486
ltoes -31.3538
454
root -1.57636 14.8974 5.75505 12.9052 21.1213 1.43765
lowerback 2.24754 -1.63015 2.38542
upperback -4.94207 -1.90343 2.3939
thorax -6.39567 -0.986368 1.30556
lowerneck -9.02995 -2.58252 4.73122
upperneck 35.1916 -5.38605 1.79505
head 13.2774 -1.41616 -0.832918
rclavicle 3.42904e-014 -1.43125e-014
rhumerus 10.421 18.2365 -73.2336
rradius 138.047
rwrist -49.1059
rhand -15.9736 -7.79083
rfingers 7.12502
rthumb 10.2256 -37.5223
lclavicle 3.42904e-014 -1.43125e-014
lhumerus 9.32995 -28.438 80.2526
lradius 140.683
lwrist 40.0637
lhand -9.50072 32.3369
lfingers 7.12502
lthumb 16.4644 61.6583
rfemur -39.9344 -0.776121 10.4838
rtibia 51.6153
rfoot -18.5175 -13.6203
rtoes -6.42717
lfemur -0.140978 -11.7535 -2.51832
ltibia 15.78
lfoot -17.6409 3.54826
ltoes -31.2804
455
root -1.57805 14.8946 5.75075 12.8747 21.5061 1.30254
lowerback 2.43088 -1.18668 2.59493
upperback -5.01167 -1.28059 2.45985
thorax -6.58163 -0.686296 1.2151
lowerneck -9.0555 -3.12444 4.18437
upperneck 34.8683 -6.14713 2.15645
head 13.1625 -1.77964 -0.694293
rclavicle -2.60905e-014 1.59028e-015
rhumerus 10.3226 17.2361 -72.9469
rradius 138.159
rwrist -49.5241
rhand -16.0405 -7.85925
rfingers 7.12502
rthumb 10.1611 -37.5939
lclavicle -2.60905e-014 1.59028e-015
lhumerus 9.00718 -29.7461 80.544
lradius 141.761
lwrist 38.6528
lhand -9.33029 32.0109
lfingers 7.12502
lthumb 16.6285 61.3186
rfemur -39.8749 -0.546275 10.5684
rtibia 51.6726
rfoot -18.4743 -14.1806
rtoes -6.39476
lfemur -0.584428 -11.7273 -2.33297
ltibia 16.3228
lfoot -17.8949 3.72621
ltoes -31.1769
456
root -1.57837 14.8915 5.74748 12.911 21.6523 1.35241
lowerback 2.58789 -0.751126 2.58529
upperback -5.06232 -0.686453 2.46162
thorax -6.7264 -0.391913 1.17759
lowerneck -9.06919 -3.58811 3.73502
upperneck 34.5488 -6.79456 2.4567
head 13.0508 -2.08998 -0.582385
rclavicle -2.05245e-014 -2.38542e-015
rhumerus 10.2818 16.3082 -72.7666
rradius 138.203
rwrist -50.0264
rhand -16.1033 -7.94638
rfingers 7.12502
rthumb 10.1005 -37.684
lclavicle -2.05245e-014 -2.38542e-015
lhumerus 8.8187 -30.9992 80.7257
lradius 142.63
lwrist 37.1334
lhand -9.18855 31.6486
lfingers 7.12502
lthumb 16.7649 60.9448
rfemur -39.9206 -0.311231 10.4543
rtibia 51.8001
rfoot -18.4433 -14.5744
rtoes -6.36308
lfemur -0.776174 -11.7395 -2.4269
ltibia 16.5729
lfoot -18.0411 4.05519
ltoes -31.0948
457
root -1.5779 14.889 5.7439 13.0112 21.5974 1.53988
lowerback 2.74551 -0.344675 2.41665
upperback -5.12384 -0.144133 2.41431
thorax -6.88238 -0.116891 1.17926
lowerneck -9.04517 -3.96121 3.38159
upperneck 34.2565 -7.30843 2.69021
head 12.9428 -2.33888 -0.495359
rclavicle 9.88954e-015 -4.05521e-014
rhumerus 10.2623 15.5282 -72.7319
rradius 138.176
rwrist -50.5297
rhand -16.1743 -8.04489
rfingers 7.12502
rthumb 10.032 -37.7858
lclavicle 9.88954e-015 -4.05521e-014
lhumerus 8.71131 -32.1626 80.8083
lradius 143.309
lwrist 35.581
lhand -9.13149 31.2885
lfingers 7.12502
lthumb 16.8199 60.58
rfemur -40.0732 -0.088234 10.1947
rtibia 51.9769
rfoot -18.4088 -14.8085
rtoes -6.33837
lfemur -0.758698 -11.805 -2.72455
ltibia 16.5349
lfoot -18.0649 4.49178
ltoes -31.03
458
root -1.57698 14.8867 5.74173 13.1576 21.3387 1.81751
lowerback 2.86272 0.0271735 2.12564
upperback -5.17422 0.338449 2.32923
thorax -7.00506 0.133935 1.21208
lowerneck -9.03086 -4.23184 3.13869
upperneck 34.0135 -7.67624 2.84404
head 12.8534 -2.51898 -0.440033
rclavicle 3.3048e-014 1.59028e-015
rhumerus 10.3042 14.9366 -72.8601
rradius 138.061
rwrist -50.969
rhand -16.2293 -8.08824
rfingers 7.12502
rthumb 9.97892 -37.8317
lclavicle 3.3048e-014 1.59028e-015
lhumerus 8.7123 -33.2081 80.7645
lradius 143.798
lwrist 33.9924
lhand -9.1032 30.9199
lfingers 7.12502
lthumb 16.8471 60.2091
rfemur -40.3217 0.152586 9.83712
rtibia 52.1771
rfoot -18.3602 -14.9
rtoes -6.30734
lfemur -0.537502 -11.9071 -3.16977
ltibia 16.2325
lfoot -17.9824 5.01458
ltoes -31.0106
459
root -1.57498 14.8852 5.74015 13.3325 20.9152 2.11623
lowerback 2.92833 0.345142 1.79748
upperback -5.19968 0.741276 2.22799
thorax -7.07411 0.347096 1.25398
lowerneck -9.08024 -4.38621 3.01804
upperneck 33.8297 -7.87898 2.89791
head 12.7935 -2.6217 -0.425102
rclavicle 2.97183e-014 -4.77083e-015
rhumerus 10.4502 14.5744 -73.1453
rradius 137.875
rwrist -51.2911
rhand -16.2973 -8.10543
rfingers 7.12502
rthumb 9.91331 -37.852
lclavicle 2.97183e-014 -4.77083e-015
lhumerus 8.85759 -34.096 80.5784
lradius 144.073
lwrist 32.3709
lhand -9.05485 30.5527
lfingers 7.12502
lthumb 16.8936 59.8379
rfemur -40.6489 0.394462 9.45397
rtibia 52.3647
rfoot -18.2844 -14.8563
rtoes -6.2613
lfemur -0.16863 -12.036 -3.67704
ltibia 15.7287
lfoot -17.8168 5.58326
ltoes -31.0356
460
root -1.57188 14.8849 5.73856 13.5243 20.3404 2.38469
lowerback 2.93915 0.599602 1.48201
upperback -5.22666 1.05718 2.12565
thorax -7.11493 0.516791 1.29504
lowerneck -9.10463 -4.4217 3.00212
upperneck 33.6921 -7.91 2.87488
head 12.739 -2.64536 -0.434787
rclavicle -6.95746e-015 3.33958e-014
rhumerus 10.6327 14.4951 -73.6095
rradius 137.643
rwrist -51.4531
rhand -16.3889 -8.08826
rfingers 7.12502
rthumb 9.82499 -37.839
lclavicle -6.95746e-015 3.33958e-014
lhumerus 9.08465 -34.8115 80.2926
lradius 144.112
lwrist 30.7249
lhand -8.91934 30.1884
lfingers 7.12502
lthumb 17.0241 59.4624
rfemur -41.0515 0.649002 9.09644
rtibia 52.5118
rfoot -18.1649 -14.69
rtoes -6.19414
lfemur 0.304839 -12.1693 -4.18723
ltibia 15.0768
lfoot -17.5838 6.1805
ltoes -31.1074
461
root -1.56768 14.8859 5.73644 13.7261 19.6201 2.5852
lowerback 2.90278 0.792853 1.21996
upperback -5.25344 1.29301 2.02757
thorax -7.12829 0.644312 1.31819
lowerneck -9.13009 -4.34211 3.09143
upperneck 33.5951 -7.78209 2.79055
head 12.6939 -2.59326 -0.465608
rclavicle -1.03368e-014 0
rhumerus 10.8434 14.6812 -74.2411
rradius 137.389
rwrist -51.4504
rhand -16.4941 -8.05265
rfingers 7.12502
rthumb 9.72348 -37.8082
lclavicle -1.03368e-014 0
lhumerus 9.42505 -35.3397 79.9098
lradius 143.903
lwrist 29.1081
lhand -8.67495 29.8632
lfingers 7.12502
lthumb 17.2593 59.1168
rfemur -41.5275 0.93441 8.80112
rtibia 52.595
rfoot -17.9896 -14.417
rtoes -6.10292
lfemur 0.842378 -12.276 -4.65988
ltibia 14.3368
lfoot -17.308 6.79108
ltoes -31.2099
